<?xml version="1.0" encoding="UTF-8"?>
<svg xmlns="http://www.w3.org/2000/svg" width="97.677" height="48.001" viewBox="0 0 97.677 48.001">
  <g transform="translate(0)">
    <path d="M403.523-.038h.1c-.042.108.051.16.1.223a2.112,2.112,0,0,0,.559.42.7.7,0,0,1,.253.217c.173.273.074.491-.24.529a.606.606,0,0,0-.5.262c-.028.046-.068.1-.017.154s.094.008.134-.011c.236-.106.47-.218.707-.323a1.322,1.322,0,0,1,1.013-.091.864.864,0,0,0,.6-.038A2.126,2.126,0,0,0,407.3.413c.067-.1.115-.144.214-.033.456.515.719,1.2-.073,1.757-.093.065-.125.12-.071.235a1.065,1.065,0,0,1-.1,1.067,1.078,1.078,0,0,1-.981.444c-.128.006-.152-.052-.145-.158a1.656,1.656,0,0,0-.054-.576.59.59,0,0,0-.507-.494.727.727,0,0,0-.766.3.855.855,0,0,0,.484,1.3,4.728,4.728,0,0,1,1.408.885q.24.2.481.408c.036.03.072.08.123.058s.038-.084.04-.129a4.3,4.3,0,0,1,.217-1.113,2.682,2.682,0,0,1,2-2.015,2.939,2.939,0,0,1,2.977.776,3.418,3.418,0,0,1,.86,2.137c.015.18.067.246.258.259a3.964,3.964,0,0,1,1.582.436A1.863,1.863,0,0,1,416.3,7.347a2.862,2.862,0,0,1-1.271,2.7,4.064,4.064,0,0,1-2.074.519c-.173,0-.211.051-.159.212a2.734,2.734,0,0,0,.434.86,1.709,1.709,0,0,0,1.616.655,2.026,2.026,0,0,1-.735-.477.615.615,0,0,1,.025-.891.658.658,0,0,1,.755-.173,2.245,2.245,0,0,1,.82.55c.093.092.149.123.176-.048a2.235,2.235,0,0,1,.113-.42c.157-.429.386-.57.827-.437a3.665,3.665,0,0,0,1.318.155c.031,0,.066,0,.084.07a2.46,2.46,0,0,0-.465,1.447,1.613,1.613,0,0,1-.823,1.327c-.242.145-.486.287-.745.44.223.13.436.257.652.379a1.783,1.783,0,0,1,.939,1.638,2.037,2.037,0,0,0,.35,1.066c.036.058.108.1.084.213a3.437,3.437,0,0,0-1.43.146c-.441.108-.647-.029-.793-.459-.058-.173-.1-.352-.147-.532-.106.016-.15.1-.214.158a2.289,2.289,0,0,1-.686.452.689.689,0,0,1-.715-.066.644.644,0,0,1-.059-1.044,2.332,2.332,0,0,1,.7-.42,1.926,1.926,0,0,0-2.091,1.6c-.029.119.031.141.128.138a3.637,3.637,0,0,1,.7.05,2.792,2.792,0,0,1,2.644,2.28,1.9,1.9,0,0,1-1.1,2.319,4.009,4.009,0,0,1-1.471.39c-.194.015-.285.077-.285.291A3.014,3.014,0,0,1,409,25.108a2.76,2.76,0,0,1-1.422-1.816,4.86,4.86,0,0,1-.228-1.249c-.117,0-.157.084-.215.128a5.913,5.913,0,0,1-1.884,1.26.9.9,0,0,0-.507.53.74.74,0,0,0,.139.812.719.719,0,0,0,.749.228.622.622,0,0,0,.48-.548,1.653,1.653,0,0,0,.039-.5c-.009-.122.026-.168.16-.168a1.087,1.087,0,0,1,.961.454,1.074,1.074,0,0,1,.11,1.053c-.041.106-.048.168.057.238.776.529.567,1.214.089,1.754-.084.1-.143.1-.218-.018a2.188,2.188,0,0,0-.748-.747,1.1,1.1,0,0,0-.9-.185,1.42,1.42,0,0,1-1.061-.107c-.214-.1-.422-.2-.639-.3-.055-.024-.13-.075-.176-.006s.012.123.051.175a.693.693,0,0,0,.517.228c.243.026.3.1.264.344s-.208.331-.382.438c-.244.151-.519.274-.6.588h-.1c-.057-.278-.291-.39-.5-.526a1.249,1.249,0,0,1-.422-.315c-.174-.266-.073-.5.235-.534a.663.663,0,0,0,.475-.211c.045-.056.1-.124.051-.193s-.122-.013-.177.012c-.236.106-.467.223-.706.325a1.188,1.188,0,0,1-.851.109,1.257,1.257,0,0,0-1.147.221,2.263,2.263,0,0,0-.647.681c-.058.092-.108.137-.2.034-.47-.521-.725-1.2.052-1.757.1-.072.132-.121.08-.252a1.077,1.077,0,0,1,.113-1.065,1.09,1.09,0,0,1,.979-.446c.128.005.149.057.14.168a1.722,1.722,0,0,0,.046.553.627.627,0,0,0,.415.5.774.774,0,0,0,.841-.259.764.764,0,0,0,.05-.874,1.152,1.152,0,0,0-.651-.516,2.593,2.593,0,0,1-.9-.515c-.277-.236-.559-.466-.844-.7-.041-.033-.072-.106-.137-.075s-.04.1-.043.153a4.314,4.314,0,0,1-.245,1.181,2.7,2.7,0,0,1-2.128,1.965,2.887,2.887,0,0,1-3.28-1.489,3.7,3.7,0,0,1-.393-1.438c-.016-.229-.118-.279-.312-.293a3.981,3.981,0,0,1-1.225-.288,1.915,1.915,0,0,1-1.351-1.485,2.734,2.734,0,0,1,1.648-2.939,4.681,4.681,0,0,1,1.684-.32c.169,0,.213-.035.16-.206a2.712,2.712,0,0,0-.507-.955,1.644,1.644,0,0,0-1.535-.558,2.1,2.1,0,0,1,.646.385.624.624,0,0,1,.154.845.7.7,0,0,1-.909.285,2.367,2.367,0,0,1-.668-.437c-.07-.061-.12-.151-.235-.175-.045.168-.085.33-.132.489-.155.479-.377.628-.859.491a3.946,3.946,0,0,0-1.365-.156c-.009,0-.019-.022-.032-.039a1.981,1.981,0,0,0,.434-1.056,1.975,1.975,0,0,1,1.166-1.931c.147-.073.286-.16.446-.252-.24-.138-.448-.26-.659-.379a1.693,1.693,0,0,1-.923-1.471,2.525,2.525,0,0,0-.452-1.378c-.005-.008.009-.028.023-.062a3.748,3.748,0,0,0,1.429-.158c.4-.108.611.03.76.412a2.822,2.822,0,0,1,.122.441c.032.158.077.168.191.054a2.149,2.149,0,0,1,.821-.546.677.677,0,0,1,.84.3.6.6,0,0,1-.112.81,1.574,1.574,0,0,1-.519.35c-.05.022-.134.015-.138.117a1.024,1.024,0,0,0,.119.009,1.915,1.915,0,0,0,1.835-1.372c.135-.382.135-.383-.253-.4a1.569,1.569,0,0,1-.218-.01c-1.572-.175-2.622-.8-2.936-2.4a1.869,1.869,0,0,1,.918-2.127,3.885,3.885,0,0,1,1.71-.5c.157-.013.222-.055.237-.222a4.25,4.25,0,0,1,.363-1.422,2.986,2.986,0,0,1,4.808-.75,3.949,3.949,0,0,1,.88,2.24c.01.084-.036.2.063.236.074.025.131-.079.192-.129a5.818,5.818,0,0,1,1.864-1.243.884.884,0,0,0,.517-.552.753.753,0,0,0-.164-.809.723.723,0,0,0-.76-.2.624.624,0,0,0-.458.566,1.887,1.887,0,0,0-.031.5c.008.1-.029.146-.136.142a1.081,1.081,0,0,1-.984-.436,1.067,1.067,0,0,1-.113-1.065.168.168,0,0,0-.056-.24,1.057,1.057,0,0,1-.089-1.754c.09-.09.143-.107.218.016a2.132,2.132,0,0,0,.666.7,1.147,1.147,0,0,0,.983.238,1.386,1.386,0,0,1,1.013.084c.244.108.486.223.729.336.043.019.1.045.133,0s0-.093-.024-.134a.631.631,0,0,0-.547-.265c-.253,0-.276-.149-.261-.336a.5.5,0,0,1,.262-.385,5.375,5.375,0,0,0,.5-.341c.106-.084.246-.168.234-.34Zm15.34,13.978c-.14,0-.2.128-.309.186s-.2.115-.3.177a.619.619,0,0,1-.9-.069,2.938,2.938,0,0,0-.494-.356c.272-.2.533-.387.79-.579.077-.057.148-.026.22,0a2.83,2.83,0,0,1,.794.42c.056.042.1.13.194.084v.139Zm-30.569-.118a4.121,4.121,0,0,1,.891-.523.358.358,0,0,1,.416.06c.207.18.443.327.676.5a6.6,6.6,0,0,0-.783.573c-.079.071-.162.03-.24,0a3,3,0,0,1-.772-.411c-.059-.043-.1-.123-.193-.107Zm20.089.453h0a2.218,2.218,0,0,0-.279.084.97.97,0,0,1-.962-.143c-.546-.379-.546-.365-.008-.747a.962.962,0,0,1,.959-.154c.109.042.224.07.382.118a1.443,1.443,0,0,1-.225-.729,1.41,1.41,0,0,0-.1-.722,1.069,1.069,0,0,1,.962.5,3.081,3.081,0,0,0,.422.646,1.007,1.007,0,0,0,.7.346c-.194-.111-.33-.179-.456-.263a1.087,1.087,0,0,1-.22-1.5,1.331,1.331,0,0,1,1.182-.306c.138.022.149.08.065.193a2.036,2.036,0,0,0-.227.4c-.084.2-.153.411.024.588a.57.57,0,0,0,.613.1,1.257,1.257,0,0,0,.712-1.833,3.061,3.061,0,0,0-1.754-1.3c-.493-.161-.548-.116-.691.369a2.612,2.612,0,0,1-2.241,2.007c-.128.019-.253.05-.383.069a.262.262,0,0,0-.224.158,5.717,5.717,0,0,1-1.109,1.519c-.12.124-.108.192.005.311a5.657,5.657,0,0,1,1.037,1.395.506.506,0,0,0,.413.306,3.256,3.256,0,0,1,1.553.573,2.942,2.942,0,0,1,.989,1.651c.055.225.163.289.373.252a3.011,3.011,0,0,0,2.046-1.381,1.114,1.114,0,0,0,.137-.817,1.316,1.316,0,0,0-1.02-1.014c-.428-.046-.652.216-.524.623a1.342,1.342,0,0,0,.245.469c.147.173.055.212-.105.233a1.533,1.533,0,0,1-1.025-.217.519.519,0,0,1-.265-.3c-.114-.55-.084-1.065.461-1.344a1.607,1.607,0,0,0,.169-.093c.051-.034.142-.028.143-.136a1.233,1.233,0,0,0-.61.343,2.474,2.474,0,0,0-.414.621,1.038,1.038,0,0,1-.985.544,1.124,1.124,0,0,0,.1-.626,1.456,1.456,0,0,1,.181-.743c.02-.018.052-.038.024-.065s-.052-.008-.07.021Zm-9.649-.019h0l-.06,0,.027.033a1.46,1.46,0,0,1,.188.813.982.982,0,0,0,.1.562.961.961,0,0,1-.974-.516,3.054,3.054,0,0,0-.4-.6,1.046,1.046,0,0,0-.683-.354,5.26,5.26,0,0,1,.562.412,1.031,1.031,0,0,1,.061,1.381,1.357,1.357,0,0,1-1.142.278c-.139-.022-.15-.084-.069-.195a2.135,2.135,0,0,0,.226-.4c.084-.2.151-.411-.025-.588a.576.576,0,0,0-.615-.1,1.248,1.248,0,0,0-.779,1.679,2.875,2.875,0,0,0,2.04,1.5c.237.055.407.009.44-.28a1.809,1.809,0,0,1,.134-.413,2.443,2.443,0,0,1,1.819-1.647c.229-.051.459-.1.69-.143a.289.289,0,0,0,.241-.168A5.671,5.671,0,0,1,401.6,14c.14-.145.112-.216-.01-.343a5.5,5.5,0,0,1-1.009-1.355.543.543,0,0,0-.449-.332,3.275,3.275,0,0,1-1.393-.464,2.937,2.937,0,0,1-1.141-1.8c-.045-.181-.131-.224-.3-.212a2.818,2.818,0,0,0-1.457.672,2.123,2.123,0,0,0-.666.756,1.274,1.274,0,0,0,.805,1.779.555.555,0,0,0,.565-.121c.157-.153.1-.345.049-.523a1.311,1.311,0,0,0-.242-.444c-.112-.136-.069-.2.085-.217a1.441,1.441,0,0,1,1.063.239.629.629,0,0,1,.258.369,1.089,1.089,0,0,1-.486,1.241c-.094.063-.193.122-.289.182a.942.942,0,0,0,.753-.464c.128-.186.236-.385.361-.574a1.041,1.041,0,0,1,.888-.411c-.2.469.03.993-.3,1.408a.239.239,0,0,0,.216-.029,1.1,1.1,0,0,1,1.259.211,2.808,2.808,0,0,0,.232.176c.1.065.077.11,0,.182a1.312,1.312,0,0,1-1.6.342.247.247,0,0,0-.047-.013Zm4.532-5.912h0c-.061.008-.072.007-.076.011-.072.065-.14.134-.212.2a1.7,1.7,0,0,1-1.922.4.78.78,0,0,1-.471-1.118c.048-.118.115-.23.173-.346s.117-.135.213-.025a1.357,1.357,0,0,0,.507.367.575.575,0,0,0,.658-.078.65.65,0,0,0,.194-.684,1.036,1.036,0,0,0-.645-.678,1.78,1.78,0,0,0-1.976.47,5.363,5.363,0,0,0-1.052,1.863c-.048.132.015.168.12.2a3.317,3.317,0,0,1,2.059,2.142.411.411,0,0,0,.386.318,3.734,3.734,0,0,1,2.257.906c.1.1.153.023.219-.038a3.042,3.042,0,0,1,.813-.522,4.962,4.962,0,0,1,1.411-.347.4.4,0,0,0,.376-.3,3.312,3.312,0,0,1,2.07-2.161c.11-.039.161-.084.113-.208a5.265,5.265,0,0,0-1.088-1.9A1.744,1.744,0,0,0,405.7,6.31,1.1,1.1,0,0,0,404.83,7a.688.688,0,0,0,.178.756.611.611,0,0,0,.706.049,1.408,1.408,0,0,0,.462-.348c.085-.093.137-.1.2.014.045.084.1.168.141.252a.817.817,0,0,1-.523,1.26,1.649,1.649,0,0,1-1.645-.285,6.65,6.65,0,0,1-.5-.473.376.376,0,0,0,.1.232,1.915,1.915,0,0,0,1.341.788c.1.016.221,0,.279.111a1.789,1.789,0,0,1,.253.774c0,.188-.066.261-.257.245a2.019,2.019,0,0,1-1.221-.476c-.041-.037-.078-.092-.143-.068-.051.018-.03.059-.024.1a1.839,1.839,0,0,1-.242,1.092c-.091.175-.176.444-.367.44s-.268-.273-.365-.448a2.155,2.155,0,0,1-.258-1.2c-.03-.007-.041-.012-.046-.008-.037.03-.073.063-.109.095a1.968,1.968,0,0,1-1.248.469c-.084,0-.192.016-.213-.106a1.465,1.465,0,0,1,.218-.877c.079-.168.246-.129.381-.157a1.9,1.9,0,0,0,1.336-.9Zm.609,10.967h0c.147,0,.187-.1.253-.163A1.72,1.72,0,0,1,406,18.684a.817.817,0,0,1,.512,1.266c-.032.065-.072.126-.1.191-.067.137-.133.191-.258.042a1.254,1.254,0,0,0-.492-.348.6.6,0,0,0-.594.035.6.6,0,0,0-.271.526.883.883,0,0,0,.483.787,1.745,1.745,0,0,0,2.081-.3,5.171,5.171,0,0,0,1.134-1.953c.046-.125-.014-.154-.109-.187a3.257,3.257,0,0,1-2.041-2.066.555.555,0,0,0-.526-.42,3.556,3.556,0,0,1-2.158-.9c-.09-.084-.139-.022-.2.034a3.082,3.082,0,0,1-.833.537,5.537,5.537,0,0,1-1.46.355.327.327,0,0,0-.3.252,3.214,3.214,0,0,1-2.087,2.2c-.132.044-.156.1-.109.226a6.52,6.52,0,0,0,.751,1.487,1.936,1.936,0,0,0,1.728.945,1.208,1.208,0,0,0,1.2-.847.642.642,0,0,0-.225-.652.566.566,0,0,0-.618-.066c-.119.047-.22.137-.338.19s-.18.311-.344.216c-.113-.065-.155-.252-.228-.39a.541.541,0,0,1-.035-.09.73.73,0,0,1,.338-.956,1.561,1.561,0,0,1,1.556-.056,2.924,2.924,0,0,1,.733.563c-.035-.174-.034-.174-.107-.258a1.766,1.766,0,0,0-1.153-.615.5.5,0,0,1-.479-.391c-.024-.077-.057-.151-.084-.228-.144-.479-.039-.594.447-.509a1.96,1.96,0,0,1,1.159.621c-.014-.186-.031-.314-.031-.442a1.546,1.546,0,0,1,.456-1.23.219.219,0,0,1,.353.009,1.523,1.523,0,0,1,.414.831,2.554,2.554,0,0,1,.021.8,2.079,2.079,0,0,1,1.377-.619c.209-.02.273.066.266.26a1.83,1.83,0,0,1-.19.645.337.337,0,0,1-.306.227,1.922,1.922,0,0,0-1.451.9Zm7.37-12.894h0c-.247-.019-.5-.024-.743-.06a.959.959,0,0,1-.894-.705,1.205,1.205,0,0,1,.278-1.3,1.085,1.085,0,0,1,1.236-.026c.09.04.233.074.233.18s-.15.1-.225.159c-.039.029-.084.049-.122.078-.117.084-.253.175-.239.34.015.181.162.27.309.343a.553.553,0,0,0,.379.034.973.973,0,0,0,.584-1.543,1.9,1.9,0,0,0-3.007.027,3.7,3.7,0,0,0-.525,1.319,1.9,1.9,0,0,0,.067,1.025c.291.761.6,1.516.892,2.275a.2.2,0,0,0,.213.154,3.885,3.885,0,0,1,1.89.474,3.52,3.52,0,0,0,2.1.317,1.819,1.819,0,0,0,1.665-1.574c.169-1.012-.422-1.629-1.351-1.394a.587.587,0,0,0-.436.852.752.752,0,0,0,.7.484c.085.007.173-.037.258.036a1.172,1.172,0,0,1-.957.64,1.628,1.628,0,0,1-1.543-1.265.907.907,0,0,0,.013.623c.042.1.035.162-.084.2a4.444,4.444,0,0,1-.8.212,1.2,1.2,0,0,1-1.147-.593.993.993,0,0,1-.028-1.1.218.218,0,0,1,.115-.13.22.22,0,0,1,.174-.006,1.612,1.612,0,0,0,.986-.075ZM395.836,21.3h0c.226,0,.453-.013.675,0a1.012,1.012,0,0,1,1.029.766,1.171,1.171,0,0,1-.327,1.285,1.137,1.137,0,0,1-1.283-.044l-.021-.012c-.055-.034-.143-.05-.146-.115,0-.088.1-.084.157-.123s.143-.078.208-.126c.123-.092.268-.183.235-.364a.479.479,0,0,0-.329-.33.565.565,0,0,0-.31-.03.961.961,0,0,0-.7.485.951.951,0,0,0-.035.851,1.48,1.48,0,0,0,1.435.94,1.915,1.915,0,0,0,1.694-.777,3.481,3.481,0,0,0,.512-1.273,1.844,1.844,0,0,0-.049-1c-.3-.784-.613-1.56-.919-2.342a.18.18,0,0,0-.2-.134,3.986,3.986,0,0,1-1.956-.5,3.4,3.4,0,0,0-2.06-.286,1.83,1.83,0,0,0-1.673,1.878,1.016,1.016,0,0,0,.385.939,1.029,1.029,0,0,0,1.009.143.578.578,0,0,0,.414-.292.572.572,0,0,0,.023-.5.768.768,0,0,0-.684-.534c-.085-.008-.176.024-.258-.021a1.074,1.074,0,0,1,1.013-.66,1.516,1.516,0,0,1,1.417,1.344,1.055,1.055,0,0,0-.009-.773c-.038-.093-.033-.152.073-.185a3.07,3.07,0,0,1,.97-.206,1.213,1.213,0,0,1,.994.575A1.2,1.2,0,0,1,397.181,21a.244.244,0,0,1-.32.16,1.429,1.429,0,0,0-1.023.121Zm-.107-16.8h0a1.526,1.526,0,0,1,1.251-.3.647.647,0,0,1,.377.252,1.352,1.352,0,0,1,.144,1.292,1,1,0,0,1-.884.623,3.384,3.384,0,0,1-.8.03,1.725,1.725,0,0,0,1.063.1c.1-.021.179-.04.259.059a.975.975,0,0,1,.044,1.214,1.279,1.279,0,0,1-1.266.56,4.9,4.9,0,0,1-.73-.183c-.12-.037-.15-.084-.1-.209a.872.872,0,0,0-.008-.731,1.615,1.615,0,0,1-1.32,1.355,1.147,1.147,0,0,1-1.1-.672,2.9,2.9,0,0,0,.407-.042.719.719,0,0,0,.561-.6.543.543,0,0,0-.176-.57,1.071,1.071,0,0,0-1.668.667,1.848,1.848,0,0,0,1.407,2.108,3.479,3.479,0,0,0,2.5-.31,2.628,2.628,0,0,1,1.293-.385c.544.028.75-.221.9-.691.176-.568.431-1.112.65-1.667a2.576,2.576,0,0,0-.176-1.988,1.9,1.9,0,0,0-1.773-1.214,1.538,1.538,0,0,0-1.6.945.959.959,0,0,0,.546,1.275.64.64,0,0,0,.667-.066c.235-.181.243-.369.006-.552-.138-.107-.3-.189-.474-.3Zm18.806,15.3h0a1.177,1.177,0,0,0-.69.126c-.371.238-.48.834-.169,1.062a1.144,1.144,0,0,0,1.07.118.85.85,0,0,0,.6-.7,1.839,1.839,0,0,0-.268-1.39,1.858,1.858,0,0,0-1.178-.794,3.277,3.277,0,0,0-2.184.207,4.255,4.255,0,0,1-2.047.535.169.169,0,0,0-.185.121c-.022.06-.048.12-.072.18-.221.563-.408,1.141-.67,1.685a2.674,2.674,0,0,0,.084,2.417,1.828,1.828,0,0,0,1.322,1.063,1.621,1.621,0,0,0,1.988-.84.96.96,0,0,0-.014-.861.97.97,0,0,0-.7-.507.584.584,0,0,0-.534.168.272.272,0,0,0-.008.455,3.376,3.376,0,0,0,.506.331,1.44,1.44,0,0,1-.981.357.8.8,0,0,1-.746-.49,1.149,1.149,0,0,1,.008-1.175,1.163,1.163,0,0,1,1.039-.559c.2-.009.4,0,.607,0a1.266,1.266,0,0,0-.946-.127c-.3.076-.394-.062-.481-.282a.9.9,0,0,1-.012-.773,1.34,1.34,0,0,1,1.164-.792,2.948,2.948,0,0,1,.974.185c.117.034.122.088.079.2a.991.991,0,0,0-.037.692,1.529,1.529,0,0,1,1.382-1.268,1.187,1.187,0,0,1,1.1.672Zm-8.823-7.588h0a2.708,2.708,0,0,0-1.977.9c-.127.143-.188.157-.324,0a2.7,2.7,0,0,0-2-.905,5.362,5.362,0,0,0,1.785,1.626,4.858,4.858,0,0,0-1.763,1.6c.036.019.05.032.062.033a.783.783,0,0,0,.1-.008,2.683,2.683,0,0,0,1.824-.908c.132-.15.195-.126.312.008a2.615,2.615,0,0,0,.888.663,3.918,3.918,0,0,0,1.124.26,6.118,6.118,0,0,0-1.752-1.654,4.779,4.779,0,0,0,.9-.72,9.355,9.355,0,0,0,.816-.9Zm-11.593.42h0a2.545,2.545,0,0,1-.995,1.139c-.058.038-.084.08-.011.127a2.7,2.7,0,0,1,1.013,1.151,2.979,2.979,0,0,1,1.221-1.218,3.66,3.66,0,0,1-.7-.5,2.748,2.748,0,0,1-.532-.7Zm17.668,1.2h0a3,3,0,0,1,1.231,1.213,2.739,2.739,0,0,1,1.1-1.213,2.682,2.682,0,0,1-1.1-1.2,2.936,2.936,0,0,1-1.234,1.206ZM403.572,21h0a1.308,1.308,0,0,0-.079.123,2.416,2.416,0,0,1-.854,1.092c-.129.078-.009.113.035.151.184.158.378.3.554.469.122.114.224.252.338.377.111-.123.222-.252.338-.369a2.288,2.288,0,0,1,.2-.181c.157-.131.316-.259.488-.4a2.728,2.728,0,0,1-1.013-1.26Zm0-14.342h0a2.813,2.813,0,0,1,1.007-1.271,6.967,6.967,0,0,1-.719-.615c-.1-.1-.184-.287-.289-.3-.121-.012-.183.195-.283.3-.22.222-.472.406-.728.621a2.816,2.816,0,0,1,1.013,1.268ZM398.648,17.9h0c.632-.217,1.339-.924,1.351-1.328-.957.221-1.305.558-1.355,1.332Zm8.458-6.855h0l.046.054c.174-.058.347-.12.524-.168a1.262,1.262,0,0,0,.844-1.008.149.149,0,0,0,0-.113c-.04-.05-.085,0-.127.017a3.116,3.116,0,0,0-.613.387,2.138,2.138,0,0,0-.669.831Zm-.024,5.519h0a2.69,2.69,0,0,0,1.413,1.312c-.046-.741-.465-1.133-1.418-1.309Zm-7.021-5.483h0a2.735,2.735,0,0,0-1.418-1.307,1.406,1.406,0,0,0,1.413,1.31Z" transform="translate(-357.176 0.041)" fill="#b89c4c" fill-rule="evenodd"></path>
    <path d="M-3392.956,11196.595a6.491,6.491,0,0,1-2.065-1.239v.014l-.25-.25a6.472,6.472,0,0,1-1.45-2.3,8.36,8.36,0,0,1-.5-2.934v-.009a8.908,8.908,0,0,1,.924-3.853,6.116,6.116,0,0,1,2.035-2.281,7.512,7.512,0,0,1,2.366-1.034,15.258,15.258,0,0,1,2.417-.343h.009a12.094,12.094,0,0,1,1.711.126,10.059,10.059,0,0,1,1.72.405,9.257,9.257,0,0,1,1.655.741l.11.063-.708,2.006-.146-.078a7.84,7.84,0,0,1-.6-.525,8.1,8.1,0,0,0-1.017-.79,4.675,4.675,0,0,0-1.164-.5,5.539,5.539,0,0,0-1.565-.205,5.824,5.824,0,0,0-2.434.556,5.043,5.043,0,0,0-2.054,1.818,6.611,6.611,0,0,0-.995,3.285c-.009.079-.009.2-.009.371a8.171,8.171,0,0,0,.391,2.574,5.988,5.988,0,0,0,1.127,2.034,4.95,4.95,0,0,0,1.745,1.3,5.429,5.429,0,0,0,2.228.453,7.572,7.572,0,0,0,1.841-.211,3.783,3.783,0,0,0,1.211-.5V11190l.183.045a2.864,2.864,0,0,0,1.6,0l.18-.045v6.084l-.082.042a9.325,9.325,0,0,1-2.383.649,16.366,16.366,0,0,1-2.7.306h-.186c-.048,0-.115.006-.174.006h-.117A8.457,8.457,0,0,1-3392.956,11196.595Zm20.345.183a5.394,5.394,0,0,0-2.223,0l-.087.017-5.03-6.6h-.394v6.626l-.183-.048a3.442,3.442,0,0,0-1.753,0l-.18.048v-14.138h4.859a4.962,4.962,0,0,1,2.169.436,3.043,3.043,0,0,1,1.343,1.223,3.572,3.572,0,0,1,.438,1.778,3.339,3.339,0,0,1-.688,2.139,4.391,4.391,0,0,1-1.616,1.271,6.112,6.112,0,0,1-1.523.472l5.258,6.852Zm-7.733-7.657c.146.008.334.011.559.011a4.989,4.989,0,0,0,2.658-.573,2.584,2.584,0,0,0,1.127-1.223,3.673,3.673,0,0,0,.239-1.205,2.371,2.371,0,0,0-.25-.97,2.288,2.288,0,0,0-.919-.958,3.491,3.491,0,0,0-1.883-.43h-1.531Zm46.266,7.651a2.247,2.247,0,0,0-.733-.112,3.38,3.38,0,0,0-.857.115l-.183.045v-12.893c-.23.009-.571.033-1.034.076-.593.056-1.138.115-1.666.19l-.166.022c-.407.057-.857.121-1.228.178l-.236.036.076-.23a2.111,2.111,0,0,0,.1-.66,2.1,2.1,0,0,0-.1-.658l-.059-.2h10.594l-.067.194a2.1,2.1,0,0,0-.1.66,2.085,2.085,0,0,0,.1.657l.076.236-.239-.039c-.174-.031-.6-.1-1.481-.22-.728-.1-1.318-.171-1.759-.205-.368-.025-.649-.042-.849-.048v12.915Zm-70.019,0a2.242,2.242,0,0,0-.731-.112,3.516,3.516,0,0,0-.857.115l-.183.048v-13.98h7.194l-.064.2a2.094,2.094,0,0,0-.1.657,2.1,2.1,0,0,0,.1.66l.079.239-.242-.045c-.837-.155-1.686-.272-2.526-.349-.8-.076-1.635-.115-2.473-.118v4.556h2.74l2.189-.172-.07.214a1.935,1.935,0,0,0-.1.579,1.934,1.934,0,0,0,.1.578l.068.214-2.186-.172h-2.743v6.955Zm82.875,0a3.359,3.359,0,0,0-.818-.115,4.84,4.84,0,0,0-.941.115l-.174.034v-5.936l-4.867-8.081.318.056a6.876,6.876,0,0,0,1.175.112,5.138,5.138,0,0,0,1.057-.112l.1-.022.053.1,3.521,6.348,3.384-6.361.056-.082.1.022a3.183,3.183,0,0,0,.8.112,3.222,3.222,0,0,0,.8-.112l.374-.1-.216.326c-.911,1.374-1.473,2.231-1.88,2.869-.441.683-.9,1.438-1.411,2.3-.48.823-.9,1.6-1.248,2.3v6.272Zm-38.647,0a1.433,1.433,0,0,0-.449-.062c-.076,0-.188.006-.343.017s-.292.025-.407.034-.214.017-.278.017h-.225l6.216-14.244h.649l6.061,14.244h-.23c-.062,0-.166,0-.337-.017s-.329-.018-.528-.034-.354-.017-.475-.017a4.072,4.072,0,0,0-.761.064l-.118.022-2.133-5.5h-4.516l-1.99,5.524Zm2.7-6.719h3.518l-1.759-4.322Zm10.13-7.427.191.064a2.715,2.715,0,0,0,.849.112,1.715,1.715,0,0,0,.717-.1l.211-.109v12.806c.424.039.849.054,1.273.051.613,0,1.292-.022,2.032-.067s1.374-.1,1.86-.157l.222-.028-.068.222a1.307,1.307,0,0,0-.059.416,2.663,2.663,0,0,0,.022.3c.014.138.025.25.031.314l.017.166h-.006v.166l-7.292,0Zm-23.554.216h7.346l-.065.2a1.937,1.937,0,0,0-.1.581,1.959,1.959,0,0,0,.1.582l.079.244-.244-.051a12.938,12.938,0,0,0-2.5-.193c-.315,0-.776.006-1.338.02-.48.009-.877.017-1.161.017v4.562h2.74l2.079-.178-.118.239a1.131,1.131,0,0,0-.1.5,2.045,2.045,0,0,0,.1.638l.067.211-2.492-.171h-2.276v5.358c.422.039.846.054,1.27.051.615,0,1.3-.022,2.032-.067.753-.045,1.377-.1,1.86-.157l.228-.028-.073.225a2.126,2.126,0,0,0-.1.638v.034a1.124,1.124,0,0,0,.1.469l.1.217-7.534,0Zm57.79,6a3.567,3.567,0,0,1-.559-.307,3.664,3.664,0,0,1-.5-.4,3.77,3.77,0,0,1-.427-.518,3.577,3.577,0,0,1-.315-.57,2.809,2.809,0,0,1-.177-.6,3.981,3.981,0,0,1-.056-.657,3.584,3.584,0,0,1,.053-.649,2.661,2.661,0,0,1,.183-.609,3.529,3.529,0,0,1,.306-.565,3.626,3.626,0,0,1,.419-.522,3.571,3.571,0,0,1,1.1-.722,2.5,2.5,0,0,1,.6-.186,3.9,3.9,0,0,1,1.329,0,3.024,3.024,0,0,1,.624.19,3.762,3.762,0,0,1,.57.307,3.633,3.633,0,0,1,.511.422,4.8,4.8,0,0,1,.4.52,3.632,3.632,0,0,1,.3.567l.006.012a3.213,3.213,0,0,1,.256,1.275,2.878,2.878,0,0,1-.281,1.242,3.492,3.492,0,0,1-.326.57,4,4,0,0,1-.438.534,3.508,3.508,0,0,1-.511.4,3.049,3.049,0,0,1-.562.289,2.826,2.826,0,0,1-.607.172,4.015,4.015,0,0,1-.686.059A3.1,3.1,0,0,1-3312.806,11188.839Zm.166-5.719a2.723,2.723,0,0,0-.492.262,2.407,2.407,0,0,0-.427.365,3.075,3.075,0,0,0-.362.427,2.844,2.844,0,0,0-.267.5,3.109,3.109,0,0,0-.205,1.1,2.907,2.907,0,0,0,.205,1.1,2.913,2.913,0,0,0,.267.489,2.941,2.941,0,0,0,.365.43,2.719,2.719,0,0,0,.436.371,2.317,2.317,0,0,0,.486.259,2.729,2.729,0,0,0,.534.154,2.976,2.976,0,0,0,.568.054,2.969,2.969,0,0,0,1.113-.211,2.672,2.672,0,0,0,.489-.256,2.466,2.466,0,0,0,.421-.365,2.856,2.856,0,0,0,.365-.436,2.912,2.912,0,0,0,.261-.492,3.456,3.456,0,0,0,.169-.525v-.025a2.564,2.564,0,0,0,.011-1.084,4.1,4.1,0,0,0-.183-.576,2.875,2.875,0,0,0-.621-.938,2.195,2.195,0,0,0-.41-.352,3.29,3.29,0,0,0-.506-.259,2.963,2.963,0,0,0-1.09-.211h-.021A3.044,3.044,0,0,0-3312.64,11183.12Zm2.043,4.474,0,0a.964.964,0,0,1-.132-.081.624.624,0,0,1-.126-.13.939.939,0,0,1-.1-.225,1.042,1.042,0,0,1-.036-.278,2.023,2.023,0,0,0-.009-.261,1.07,1.07,0,0,0-.025-.166.79.79,0,0,0-.261-.5.874.874,0,0,0-.573-.162h-.1v1.129a.463.463,0,0,0,.093.323.7.7,0,0,0,.363.112l.045.006v.214h-1.79v-.214l.045-.009a.73.73,0,0,0,.36-.1.418.418,0,0,0,.1-.335l.022-2.386a.415.415,0,0,0-.121-.334l-.006-.009c-.031-.033-.118-.078-.357-.112l-.045-.006v-.2h1.835a2.846,2.846,0,0,1,.6.057,1.534,1.534,0,0,1,.469.183.767.767,0,0,1,.421.649.692.692,0,0,1-.087.334.738.738,0,0,1-.239.27,1.611,1.611,0,0,1-.4.2,3.713,3.713,0,0,1-.556.146,3.123,3.123,0,0,1,.343.141,1.222,1.222,0,0,1,.3.2,1.185,1.185,0,0,1,.323.579,1.047,1.047,0,0,1,.025.146c.006.05.011.078.014.112l.006.045q.038.417.253.418a.216.216,0,0,0,.2-.148.838.838,0,0,0,.042-.118l.011-.056a1.112,1.112,0,0,0,.02-.214v-.048h.228v.093a1.1,1.1,0,0,1-.051.331.7.7,0,0,1-.152.262.693.693,0,0,1-.247.151,1.065,1.065,0,0,1-.343.054h-.018A.864.864,0,0,1-3310.6,11187.594Zm-1.262-3.439a.21.21,0,0,0-.067.087.448.448,0,0,0-.022.149v1.183h.1l.051.006.034.006.034,0h.008a1.394,1.394,0,0,0,.4-.053.939.939,0,0,0,.309-.163.7.7,0,0,0,.256-.573.666.666,0,0,0-.2-.515.791.791,0,0,0-.573-.205h-.041A.63.63,0,0,0-3311.859,11184.154Z" transform="translate(3405.869 -11149.092)" fill="#1a1a1a"></path>
  </g>
</svg>
